# xmcd
#
# Track frame offsets: 
#        150
#        21044
#        38018
#        49170
#        71321
#        84624
#        122491
#        133691
#        160049
#        173020
#        186081
#        198356
#        205902
#        222931
#        236303
#
# Disc length: 3526 seconds
#
# Revision: 0
# Processed by: cddbd v1.5.2PL0 Copyright (c) Steve Scherf et al.
# Submitted via: ExactAudioCopy v0.99pb4
#
DISCID=c20dc40f
DTITLE=Samuel Hall Band - The Big Nowhere
DYEAR=2008
DGENRE=Dark blues
TTITLE0=The Big Nowhere
TTITLE1=A New Dawn
TTITLE2=Subterranean Reds
TTITLE3=Danny's Theme
TTITLE4=Three Dangerous Men
TTITLE5=The Strip
TTITLE6=Last Sleep
TTITLE7=Buzz
TTITLE8=2307 North Tamarind
TTITLE9=Chaz
TTITLE10=Two In The Universe
TTITLE11=Suicide Love
TTITLE12=After Darkness
TTITLE13=Red Chaser Blues
TTITLE14=Leaving The Scene
EXTD=Stéphane Pache | guitars\nPierre-Alain Bertholet | guitars on 5, 
EXTD=6, 14, 15\nMoreno Antognini | bass on 2, 4, 6 ,8\nGérald Perera |
EXTD=double bass on 6, 15\nMarc-Olivier Savoy | drums on 2, 4, 5, 6, 
EXTD=8 and 10\n\nFreely inspired by James Ellroy's novel «The Big Nowh
EXTD=ere».
EXTT0=
EXTT1=
EXTT2=
EXTT3=
EXTT4=
EXTT5=
EXTT6=
EXTT7=
EXTT8=
EXTT9=
EXTT10=
EXTT11=
EXTT12=
EXTT13=
EXTT14=
PLAYORDER=
